<svg xmlns="http://www.w3.org/2000/svg" width="64" height="64"><circle fill="#3BD671" cx="50.1" cy="21.9" r="13.9"/><g fill="none" stroke="#131A26" stroke-width="3" stroke-linecap="round" stroke-linejoin="round" stroke-miterlimit="10"><path clip-rule="evenodd" d="M30.4 1.8H12.8c-2.6 0-4.6 2.1-4.6 4.6v51.3c0 2.6 2.1 4.6 4.6 4.6h26.8c2.6 0 4.6-2.1 4.6-4.6V42.4"/><path d="M8.8 10.2h18m-18 44.4h34.9"/></g><path fill="none" stroke="#131A26" stroke-width="3" stroke-linecap="round" stroke-linejoin="round" stroke-miterlimit="10" d="M59.4 30.6c0 1.7-1.3 3-3 3H31.7c-1.7 0-3-1.3-3-3h0c0-1.7 1.3-3 3-3h24.6c1.7 0 3.1 1.4 3.1 3h0z"/><path fill="#131A26" d="M48.1 34c0 2.2-1.8 4-4 4s-4-1.8-4-4"/><path fill="none" stroke="#131A26" stroke-width="3" stroke-linecap="round" stroke-linejoin="round" stroke-miterlimit="10" d="M55.5 27.3s.5-2.9-2.4-4.7V10.7h0c0-5-4-9-9-9s-9 4-9 9h0v11.9c-2.9 1.8-2.4 4.7-2.4 4.7"/></svg>