<svg xmlns="http://www.w3.org/2000/svg" width="64" height="64"><circle fill="#3BD671" cx="47.766" cy="13.9" r="13.9"/><g fill="none" stroke="#131A26" stroke-width="3" stroke-linecap="round" stroke-linejoin="round" stroke-miterlimit="10"><path clip-rule="evenodd" d="M25.44 1.787H12.765a4.627 4.627 0 00-4.627 4.628v51.332a4.626 4.626 0 004.627 4.628h26.801a4.628 4.628 0 004.629-4.628V31"/><path d="M8.833 10.167h10m-10 44.416h34.833m-2.144-29.75c6.149-1.109 10.724-5.279 10.724-10.255 0-5.825-6.265-10.548-13.994-10.548S24.258 8.753 24.258 14.578c0 5.239 5.067 9.583 11.708 10.406l.026.029c1.345 4.668-1.741 6.249-1.741 6.249 5.459 0 7.278-4.126 7.278-6.407l-.007-.022z"/></g></svg>