<svg xmlns="http://www.w3.org/2000/svg" width="64" height="64"><circle fill="#3BD671" cx="48.25" cy="46.501" r="14.046"/><path clip-rule="evenodd" fill="none" stroke="#131A26" stroke-width="3" stroke-linejoin="round" stroke-miterlimit="10" d="M48.338 15.039l-22.046 17.03L4.26 15.039"/><path fill="#131A26" d="M48.285 41.739c2.6 0 4.715 2.113 4.715 4.71a4.72 4.72 0 01-4.715 4.714 4.717 4.717 0 01-4.711-4.714 4.717 4.717 0 014.711-4.71m0-3a7.71 7.71 0 00-7.711 7.71 7.71 7.71 0 007.711 7.714 7.712 7.712 0 100-15.424z"/><path fill="none" stroke="#131A26" stroke-width="3" stroke-linecap="round" stroke-linejoin="round" stroke-miterlimit="10" d="M55.099 40.523v10.339c0 4 7.584 4.217 7.584-4.413 0-7.663-6.446-14.395-14.397-14.395-7.95 0-14.396 6.444-14.396 14.395s6.446 14.398 14.396 14.398c2.619 0 5.073-.698 7.189-1.919"/><path clip-rule="evenodd" fill="none" stroke="#131A26" stroke-width="3" stroke-linecap="round" stroke-linejoin="round" stroke-miterlimit="10" d="M50.471 26.221v-8.676a4.628 4.628 0 00-4.628-4.627H6.638a4.627 4.627 0 00-4.627 4.627v26.801a4.628 4.628 0 004.627 4.629h21.619"/></svg>